<svg xmlns="http://www.w3.org/2000/svg" xmlns:xlink="http://www.w3.org/1999/xlink" viewBox="60 36 446 124">
  <defs>
    <style>.cls-1{fill:none;}.cls-2{clip-path:url(#clip-path);}.cls-3{clip-path:url(#clip-path-2);}.cls-4{clip-path:url(#clip-path-3);}</style>
    <clipPath id="clip-path" transform="translate(0)">
      <path class="cls-1" d="M170.71,43.35v105c0,11.15-5.84,11.55-26.81,11.28a29.55,29.55,0,0,0-3.05-8.23c3.45.13,6.9.13,9.69.13,4,0,7,0,8.23-.13,2.39,0,3.19-.66,3.19-3.19V51.85H68.63V159.5H60V43.35Zm-24.56,99h-8v-7.57h-47v9.42H83.37V98.83l10.35.66c-.13.93-.8,1.59-2.52,1.73v25.88h19.11v-39H75.54v-7.7h80.7v7.7H120.93c-.27.66-1.06.93-2.39,1.19v37.83h19.64V98.83l10.49.66c-.13.93-.8,1.59-2.52,1.86ZM96,79.06c-1.33-6-5.57-14.87-10.22-21.37L92.92,55c4.91,6.37,9.29,15.13,10.75,21.24Zm50.17-21.24c-.4.8-1.33,1.19-2.65,1.19a196.47,196.47,0,0,1-11.42,20.57c-1.46-.53-5.18-2.12-6.77-2.65a145.66,145.66,0,0,0,10.62-22.57Z"/>
    </clipPath>
    <clipPath id="clip-path-2" transform="translate(0)">
      <path class="cls-1" d="M506,55.3H441a5.5,5.5,0,0,1-2.12.4A191.18,191.18,0,0,1,422.9,90.87h75v68.49h-9.29v-8.5H422.24v8.63h-9v-54a125.28,125.28,0,0,1-22.7,23.89,63.42,63.42,0,0,0-6.37-7c21.37-16.19,36.63-42.34,44.73-67H389.32V46.54H506Zm-17.39,86.81V99.5H422.24v42.61Z"/>
    </clipPath>
    <clipPath id="clip-path-3" transform="translate(0)">
      <path class="cls-1" d="M261.14,66.18v83.76c0,8.89-4,9.29-18.32,9.29a27,27,0,0,0-2.65-7.3c2.65,0,5,.13,7,.13,5.44,0,6.11,0,6.11-2.12V121.67H235.39c-1.06,13.27-3.85,27.34-9.82,38.1a30.45,30.45,0,0,0-6.5-4.25c8.63-15.66,9.42-37.3,9.42-53.23V66.18Zm81,38.23H325.79a48.49,48.49,0,0,0,19.11,13.54,23.78,23.78,0,0,0-5,6.37,42.55,42.55,0,0,1-8.63-4.91,3.18,3.18,0,0,1-2.52.8,128,128,0,0,1-11,11.81s-5.18-3.32-5.31-3.32a97.63,97.63,0,0,0,11-13.94l7.43,4.51v-.13a57.8,57.8,0,0,1-14.2-14.73H290.21a64.44,64.44,0,0,1-9.42,11.28c4.12,3.85,8.23,9.42,9.82,13.41l-6.24,3.45c-1.46-3.58-4.91-8.63-8.49-12.61a61.59,61.59,0,0,1-9.29,6,34.55,34.55,0,0,0-5-5.71,55,55,0,0,0,19.38-15.8H264.73V97.64h20.84a72.12,72.12,0,0,0,5.31-11.15H268.71V79.85h10.35a48.39,48.39,0,0,0-6.37-13.27l6.64-2.12c2.92,4.11,5.84,9.82,6.77,13.67l-4.65,1.73h11.68A121.32,121.32,0,0,0,296.85,63l2.79.4V54.63H263.27v9.56h-8.89V54.63H222.25V47.07h32.12v-11l11.55.8c-.13.93-.93,1.59-2.65,1.86v8.36h36.37v-11l11.42.8c-.13.93-.8,1.59-2.52,1.86v8.36h32.92v7.57H308.53v9.42h-4.38v.13l2.79.27c-.27.93-1.06,1.46-2.66,1.59a140.32,140.32,0,0,1-3.05,13.8h16.59a27.68,27.68,0,0,0-2.66-1.06,113.35,113.35,0,0,0,7.7-14.87l8.89,3.45a2.69,2.69,0,0,1-2.52,1.06,127.51,127.51,0,0,1-7,11.42h16.06v6.64H315a63.08,63.08,0,0,0,5.71,11.15h21.37Zm-105.92-2.12c0,3.72-.13,7.83-.27,12.08h17.39V97.24H236.19Zm17.12-28.67H236.19V89.94h17.12Zm11.41,73c7.7-2.92,18.58-7.83,29.73-12.61l1.46,6.24-25.48,12.08a2.37,2.37,0,0,1-1.33,2.12Zm41.15-8.89,4.78-4.78c10,4.51,22.83,11.55,29.6,16.33l-5,5.44c-6.5-4.78-19.11-12.08-29.33-16.86v13.8c0,6.64-2.26,8-16.19,7.7a25,25,0,0,0-2.39-6.37c4.38.13,8,.13,9.29.13s1.46-.4,1.46-1.59V109.06l10.22.66c-.13.8-.8,1.46-2.39,1.73Zm-6.77-51.24a85.75,85.75,0,0,1-4.91,11.15h18.32a103.9,103.9,0,0,1-4.65-11.15Z"/>
    </clipPath>
    <image id="maskedImage" width="1921" height="921" xlink:href="texture.jpg"/>
  </defs>
  <g>
    <g>
      <g class="cls-2">
        <use transform="translate(0 15) scale(0.18 0.17)" xlink:href="#maskedImage"/>
      </g>
      <g class="cls-3">
        <use transform="translate(528 187) rotate(180) scale(0.2 0.2)" xlink:href="#maskedImage"/>
      </g>
      <g class="cls-4">
        <use transform="translate(92 27) scale(0.18 0.18)" xlink:href="#maskedImage"/>
      </g>
    </g>
  </g>
</svg>
